<svg width="11" height="14" viewBox="0 0 11 14" fill="none" xmlns="http://www.w3.org/2000/svg">
<path d="M5.29498 11.69L8.17665 8.79666C8.70554 8.27555 9.06332 7.6611 9.24998 6.95332C9.42887 6.2611 9.42887 5.56888 9.24998 4.87666C9.06332 4.16888 8.70748 3.55249 8.18248 3.02749C7.65748 2.50249 7.04109 2.14666 6.33332 1.95999C5.64109 1.7811 4.94887 1.7811 4.25665 1.95999C3.54887 2.14666 2.93248 2.50249 2.40748 3.02749C1.88248 3.55249 1.52665 4.16888 1.33998 4.87666C1.16109 5.56888 1.16109 6.2611 1.33998 6.95332C1.52665 7.6611 1.88443 8.27555 2.41332 8.79666L5.29498 11.69ZM5.29498 13.335L1.58498 9.62499C0.908316 8.9561 0.453316 8.16277 0.219983 7.24499C-0.0133504 6.35832 -0.0133504 5.47166 0.219983 4.58499C0.453316 3.66721 0.906372 2.87194 1.57915 2.19916C2.25193 1.52638 3.04721 1.06944 3.96498 0.828325C4.85165 0.602769 5.73832 0.602769 6.62498 0.828325C7.54276 1.06944 8.33804 1.52638 9.01082 2.19916C9.68359 2.87194 10.1366 3.66721 10.37 4.58499C10.6033 5.47166 10.6033 6.35832 10.37 7.24499C10.1366 8.16277 9.68165 8.9561 9.00498 9.62499L5.29498 13.335ZM5.29498 7.08166C5.50498 7.08166 5.69943 7.02916 5.87832 6.92416C6.05721 6.81916 6.19915 6.67721 6.30415 6.49832C6.40915 6.31944 6.46165 6.12499 6.46165 5.91499C6.46165 5.70499 6.40915 5.51055 6.30415 5.33166C6.19915 5.15277 6.05721 5.01082 5.87832 4.90582C5.69943 4.80082 5.50498 4.74832 5.29498 4.74832C5.08498 4.74832 4.89054 4.80082 4.71165 4.90582C4.53276 5.01082 4.39082 5.15277 4.28582 5.33166C4.18082 5.51055 4.12832 5.70499 4.12832 5.91499C4.12832 6.12499 4.18082 6.31944 4.28582 6.49832C4.39082 6.67721 4.53276 6.81916 4.71165 6.92416C4.89054 7.02916 5.08498 7.08166 5.29498 7.08166ZM5.29498 8.24832C4.87498 8.24832 4.48609 8.14332 4.12832 7.93332C3.77054 7.72332 3.48665 7.43944 3.27665 7.08166C3.06665 6.72388 2.96165 6.33305 2.96165 5.90916C2.96165 5.48527 3.06665 5.09638 3.27665 4.74249C3.48665 4.3886 3.77054 4.10666 4.12832 3.89666C4.48609 3.68666 4.87498 3.58166 5.29498 3.58166C5.71498 3.58166 6.10387 3.68666 6.46165 3.89666C6.81943 4.10666 7.10332 4.3886 7.31332 4.74249C7.52332 5.09638 7.62832 5.48527 7.62832 5.90916C7.62832 6.33305 7.52332 6.72388 7.31332 7.08166C7.10332 7.43944 6.81943 7.72332 6.46165 7.93332C6.10387 8.14332 5.71498 8.24832 5.29498 8.24832Z" fill="#6B7280"/>
</svg>
